<svg id="图层_1" data-name="图层 1" xmlns="http://www.w3.org/2000/svg" viewBox="0 0 1024 1024"><defs><style>.cls-1{fill:#4da6ff;}.cls-2{fill:#0080ff;}</style></defs><title>画板 1</title><path class="cls-1" d="M875.64,341.71c-75.8-111.14-153.13-204.87-223.7-206-84.1,4.74-156.9,112.37-222.41,205.92-50.3,77.19-85.69,163.63-85.63,238,0,170.13,137.92,308,308,308s308-137.92,308-308C959.28,471.24,922.88,422.6,875.64,341.71ZM651.94,779.83C539.32,779.83,448,688.54,448,575.92c0-49.24,23.39-106.46,56.69-157.55,58-85.4,104.35-140.24,137-165.58,6.46-5,14.3-5.36,20.64-.2,30.68,25,97.42,106.89,137.63,165.85,31.27,53.55,55.37,85.74,55.83,157.49C855.85,688.54,764.56,779.83,651.94,779.83Z"/><path class="cls-2" d="M595.6,341.71c-75.8-111.14-153.13-204.87-223.7-206C287.8,140.43,215,248.07,149.48,341.62c-50.3,77.19-85.69,163.63-85.63,238,0,170.13,137.92,308,308,308s308-137.92,308-308C679.24,471.24,642.83,422.6,595.6,341.71ZM371.89,779.83C259.27,779.83,168,688.54,168,575.92c0-49.24,23.39-106.46,56.69-157.55,58-85.4,104.35-140.24,137-165.58,6.46-5,14.3-5.36,20.64-.2C413,277.54,479.77,359.47,520,418.42c31.27,53.55,55.37,85.74,55.83,157.49C575.81,688.54,484.51,779.83,371.89,779.83Z"/></svg>